<?xml version="1.0" encoding="UTF-8" standalone="no"?> <!-- Created with Vectornator for iOS (http://vectornator.io/) --><!DOCTYPE svg PUBLIC "-//W3C//DTD SVG 1.1//EN" "http://www.w3.org/Graphics/SVG/1.1/DTD/svg11.dtd">
<svg height="100%" style="fill-rule:nonzero;clip-rule:evenodd;stroke-linecap:round;stroke-linejoin:round;" xmlns:xlink="http://www.w3.org/1999/xlink" xmlns="http://www.w3.org/2000/svg" xml:space="preserve" width="100%" xmlns:vectornator="http://vectornator.io" version="1.1" viewBox="0 0 210 297">
<metadata>
<vectornator:setting key="DimensionsVisible" value="1"/>
<vectornator:setting key="PencilOnly" value="0"/>
<vectornator:setting key="SnapToPoints" value="0"/>
<vectornator:setting key="OutlineMode" value="0"/>
<vectornator:setting key="CMYKEnabledKey" value="0"/>
<vectornator:setting key="RulersVisible" value="1"/>
<vectornator:setting key="SnapToEdges" value="0"/>
<vectornator:setting key="GuidesVisible" value="1"/>
<vectornator:setting key="DisplayWhiteBackground" value="0"/>
<vectornator:setting key="doHistoryDisabled" value="0"/>
<vectornator:setting key="SnapToGuides" value="1"/>
<vectornator:setting key="TimeLapseWatermarkDisabled" value="0"/>
<vectornator:setting key="Units" value="Points"/>
<vectornator:setting key="DynamicGuides" value="0"/>
<vectornator:setting key="IsolateActiveLayer" value="0"/>
<vectornator:setting key="SnapToGrid" value="0"/>
</metadata>
<defs/>
<g id="Layer 1" vectornator:layerName="Layer 1">
<path stroke="#1420ce" stroke-width="0.1" d="M246.679-44.6656C298.666-42.1477+309.933+38.1909+260.613+54.8589C254.97+57.1389+248.922+58.4108+242.839+58.5969C174.885+53.4625+105.634+55.749+38.1114+57.5989C29.3386+57.7983+20.9448+54.6349+12.2891+54.1919C-2.26266+54.2285-16.867+56.0246-31.7124+55.75C-31.6908+55.3088-28.5512+55.3717-28.066+55.0989C-14.3695+28.6937+1.58083-0.18475+1.38463-30.5475C-5.55263-37.9509-14.7244-43.8906-25.0662-44.5315C-20.23-44.9526-15.3703-44.154-10.5801-43.5154C-11.2703-43.3713-12.6658-43.2902-13.4881-43.4046C36.1545-52.6022+88.5596-43.7126+137.43-47.4141C140.007-19.6657+143.799+7.96522+147.593+35.57C148.292+39.8204+148.991+44.0708+149.69+48.3213C150.202+50.4473+150.715+52.5734+151.227+54.6995C151.728+54.817+152.735+54.5612+153.138+54.8065C140.14+58.0056+126.381+59.6208+113.217+59.3561C114.335+59.1492+115.499+58.9858+116.622+58.9589C113.855+59.8405+114.709+59.2224+117.081+58.4463C112.84+60.9072+107.05+63.1996+101.917+64.6586C104.357+63.3898+106.773+62.0199+109.115+60.6018C104.212+64.5427+100.963+69.0607+95.5999+73.0544C96.4585+72.0821+97.342+71.1301+98.2721+70.2257C97.0808+72.5291+97.4144+70.7251+97.6364+71.231C94.3694+80.0512+92.9154+89.4341+89.543+98.2252C89.4519+98.1067+89.7595+97.0928+89.7194+97.5189C88.8078+107.729+90.7754+117.984+90.0558+128.225C85.6695+150.45+88.188+173.1+85.3685+195.433C85.5481+189.141+82.8631+183.191+81.3241+177.192C85.4905+185.981+88.3335+195.578+88.5157+205.379C87.0942+232.563+74.6964+258.011+64.6319+282.899C61.163+288.217+57.3872+293.367+53.0179+297.987C34.0636+311.25+16.8259+329.57-7.07726+333.154C-34.0043+338.066-62.1151+317.906-66.0999+290.827C-71.4855+263.817-51.4958+235.283-24.3008+231.038C-29.2091+233.378-36.0033+235.873-40.7893+239.58C-32.8859+232.109-23.7087+225.965-14.6239+220.006C-19.8195+225.105-23.9902+231.248-27.6843+237.491C-23.3149+224.521-18.8138+211.536-13.8104+198.77C-15.7878+207.198-13.4048+217.395-10.0175+225.627C-10.2285+226.125-10.3921+224.929-10.5903+224.972C-13.6476+217.722-16.5321+210.26-17.5158+202.403C-16.4007+176.285-17.9141+150.348-13.4754+124.086C-17.3074+89.3974-7.87322+54.1847+6.19574+22.481C21.195-2.00135+43.4161-24.3729+70.9381-34.0409C71.4148-34.0803+69.6791-33.4774+70.8529-34.051C86.1566-42.4974+105.151-44.2211+121.569-44.5256C128.69-45.5463+135.609-47.7045+142.834-48.1959C153.714-15.579+153.005+21.1805+150.453+55.246C96.2025+60.5758+41.3009+51.0042-11.5607+60.0124C-23.377+58.8525-32.0069+59.2423-44.2235+56.5799C-54.7527+53.9923-64.068+47.9675-71.5759+40.2367C-75.5631+20.525-63.5578+1.6903-57.7309-16.2867C-52.4704-26.5609-49.469-38.8002-40.9866-47.1978C-12.7605-47.6412+15.8793-52.5518+43.7451-45.6477C41.5146-45.4759+39.2658-45.6037+37.0294-45.6246C106.588-48.1063+246.679-44.6656+246.679-44.6656Z" fill="#2932cc" stroke-linecap="round" opacity="1" stroke-linejoin="round"/>
<path stroke="#1420ce" stroke-width="0.1" d="M43.6618+237.414C62.5031+257.056+61.4595+291.344+41.3654+309.73C22.1215+329.194-12.4683+328.798-31.2609+308.898C-72.5142+261.144-91.0598+197.414-91.4325+134.973C-95.778+80.2021-96.4253+21.8211-68.5981-27.5196C-61.179-34.6929-55.0827-45.8585-43.447-46.0875C-39.5251-45.8057-35.6032-45.5238-31.6813-45.242C-10.6391-39.7709+10.6436-31.9672+28.4756-19.3445C34.4416+14.342+59.0657+41.691+59.629+76.8285C61.0655+88.9248+60.8709+101.265+58.2501+113.192C52.5615+135.205+43.9727+156.397+38.4964+178.465C38.3143+179.215+38.5402+177.915+38.582+177.74C37.8277+208.996+37.0177+241.051+36.1234+272.626C30.2504+313.087+6.01429+348.351-27.065+371.723C-35.4037+376.418-44.7309+378.966-53.7181+382.075C-82.8723+381.175-102.469+353.097-117.089+330.968C-114.668+270.95-110.496+210.967-112.434+150.837C-112.737+143.52-113.675+136.251-114.543+128.986C-124.285+80.863-118.02+30.7814-121.245-16.4649C-120.355-23.8815-117.83-31.0957-113.902-37.4494C-89.9681-81.7202-15.2034-60.489-18.0449-10.2558C-18.1888-11.0036-18.6737-15.2577-18.0099-12.529C-13.6785+31.5933-21.0044+76.5089-11.2734+120.194C-10.2924+128.552-9.37357+136.925-9.0238+145.338C-7.01533+206.423-10.2692+267.451-13.5595+328.396C-13.6075+328.724-13.6307+329.056-13.7062+329.38C-34.7443+312.201-55.8147+276.183-87.4243+290.627C-89.1134+290.906-90.7577+291.558-92.4934+291.45C-79.212+281.393-68.1191+272.953-65.7744+255.848C-65.8201+256.713-66.7399+263.588-66.7866+260.325C-65.1383+220.913-68.5854+180.652-59.1337+142.115C-53.7547+125.244-48.6851+108.264-42.9792+91.4945C-43.1118+91.2296-42.7267+90.6971-43.0513+92.3259C-43.2948+82.1322-45.6298+71.9148-51.5547+63.4484C-54.3853+58.1634-57.155+52.8332-59.3329+47.2384C-63.4698+37.0797-66.6115+26.5363-69.0421+15.8467C-69.1275+15.3011-69.3254+14.7714-69.3338+14.215C-45.1975+23.7263-19.1615+40.9448+7.95852+35.396C11.4524+32.6925+18.0936+26.4132+20.719+24.7705C5.33149+57.1076+10.2654+93.734+11.9437+128.234C11.8338+166.788+43.6618+237.414+43.6618+237.414Z" fill="#2932cc" stroke-linecap="round" opacity="1" stroke-linejoin="round"/>
</g>
</svg>
